<svg width="200" height="200" viewBox="0 0 200 200" fill="none" xmlns="http://www.w3.org/2000/svg">
  <style>
    @keyframes scrollSync1 {
      0%, 100% { transform: translateY(0); }
      50% { transform: translateY(30px); }
    }
    @keyframes scrollSync2 {
      0%, 100% { transform: translateY(0); }
      50% { transform: translateY(40px); }
    }
    .scroll-thumb-1 {
      animation: scrollSync1 4s ease-in-out infinite;
    }
    .scroll-thumb-2 {
      animation: scrollSync2 4s ease-in-out infinite;
    }
  </style>
  
  <!-- Прямоугольный фон -->
  <rect x="20" y="20" width="160" height="160" rx="6" fill="#f0f8ff" stroke="#2563eb" stroke-width="2"/>
  
  <!-- Контейнер 1 с маской для содержимого -->
  <clipPath id="container1-clip">
    <rect x="45" y="60" width="40" height="80" rx="4"/>
  </clipPath>
  
  <rect x="45" y="60" width="40" height="80" rx="4" fill="white" stroke="#2563eb" stroke-width="2"/>
  <!-- Полоса прокрутки 1 -->
  <rect x="75" y="62" width="8" height="76" rx="4" fill="#e2e8f0"/>
  <rect x="75" y="70" width="8" height="25" rx="4" fill="#3498db" class="scroll-thumb-1"/>
  
  <!-- Контейнер 2 с маской для содержимого -->
  <clipPath id="container2-clip">
    <rect x="115" y="45" width="40" height="110" rx="4"/>
  </clipPath>
  
  <rect x="115" y="45" width="40" height="110" rx="4" fill="white" stroke="#2563eb" stroke-width="2"/>
  <!-- Полоса прокрутки 2 -->
  <rect x="145" y="47" width="8" height="106" rx="4" fill="#e2e8f0"/>
  <rect x="145" y="60" width="8" height="35" rx="4" fill="#3498db" class="scroll-thumb-2"/>
  
  <!-- Пунктирные линии синхронизации -->
  <path d="M83 82 C 95 82, 105 78, 115 78" stroke="#3498db" stroke-width="3" stroke-dasharray="4 2"/>
  <path d="M83 82 L 90 78 L 90 86 Z" fill="#3498db"/>
  <path d="M115 78 L 108 74 L 108 82 Z" fill="#3498db"/>
  
  <!-- Индикатор для контейнера 1 с ограничением видимости -->
  <g clip-path="url(#container1-clip)">
    <rect x="50" y="70" width="20" height="5" rx="1" fill="#e2e8f0" class="scroll-thumb-1"/>
    <rect x="50" y="80" width="18" height="5" rx="1" fill="#e2e8f0" class="scroll-thumb-1"/>
    <rect x="50" y="90" width="22" height="5" rx="1" fill="#e2e8f0" class="scroll-thumb-1"/>
    <rect x="50" y="100" width="15" height="5" rx="1" fill="#e2e8f0" class="scroll-thumb-1"/>
  </g>
  
  <!-- Индикатор для контейнера 2 с ограничением видимости -->
  <g clip-path="url(#container2-clip)">
    <rect x="120" y="55" width="20" height="5" rx="1" fill="#e2e8f0" class="scroll-thumb-2"/>
    <rect x="120" y="65" width="18" height="5" rx="1" fill="#e2e8f0" class="scroll-thumb-2"/>
    <rect x="120" y="75" width="22" height="5" rx="1" fill="#e2e8f0" class="scroll-thumb-2"/>
    <rect x="120" y="85" width="15" height="5" rx="1" fill="#e2e8f0" class="scroll-thumb-2"/>
    <rect x="120" y="95" width="20" height="5" rx="1" fill="#e2e8f0" class="scroll-thumb-2"/>
    <rect x="120" y="105" width="17" height="5" rx="1" fill="#e2e8f0" class="scroll-thumb-2"/>
  </g>
  
  <!-- Символы X и Y -->
  <text x="30" y="45" font-family="Arial, sans-serif" font-size="14" font-weight="bold" fill="#2563eb">X</text>
  <text x="30" y="75" font-family="Arial, sans-serif" font-size="14" font-weight="bold" fill="#2563eb">Y</text>
</svg> 